<?xml version="1.0" encoding="UTF-8"?>
<svg version="1.1" xmlns="http://www.w3.org/2000/svg" width="500" height="500">
<path d="M0 0 C165 0 330 0 500 0 C500 165 500 330 500 500 C335 500 170 500 0 500 C0 335 0 170 0 0 Z " fill="#22223B" transform="translate(0,0)"/>
<path d="M0 0 C-1.40398279 4.10110762 -3.37087038 6.98089159 -6.125 10.3125 C-6.84945312 11.19550781 -7.57390625 12.07851562 -8.3203125 12.98828125 C-9.15175781 13.98408203 -9.15175781 13.98408203 -10 15 C-9.39671875 15.2165625 -8.7934375 15.433125 -8.171875 15.65625 C-3.69992597 18.42306738 -2.47864013 24.18419182 -1 29 C0.52877489 37.67612416 -1.98832897 46.69254124 -6.98828125 53.84375 C-12.30745344 60.0907916 -17.22757209 63.4091907 -25 66 C-34.74543468 66.77432512 -42.68323534 66.75653692 -51 61 C-51.87205078 60.42378906 -51.87205078 60.42378906 -52.76171875 59.8359375 C-58.25711563 55.7662985 -61.89972992 49.42056248 -64 43 C-65.20838611 32.39176422 -64.36459824 23.88872463 -58 15 C-55.57492257 12.1987051 -53.07820361 10.05404293 -50 8 C-49.36835937 7.56816406 -48.73671875 7.13632813 -48.0859375 6.69140625 C-43.00606498 3.85726888 -38.00489475 3.62514736 -32.3125 3.5625 C-31.58748291 3.55226807 -30.86246582 3.54203613 -30.11547852 3.53149414 C-24.44625471 3.6245389 -20.13154373 4.86845627 -16 9 C-15.79375 8.443125 -15.5875 7.88625 -15.375 7.3125 C-11.35463064 0.55096971 -7.41469595 -0.63919793 0 0 Z " fill="#22223A" transform="translate(152,217)"/>
<path d="M0 0 C4.95 -0.103125 9.9 -0.20625 15 -0.3125 C16.54558594 -0.35802002 18.09117187 -0.40354004 19.68359375 -0.45043945 C27.19706311 -0.52618007 33.25314769 -0.43840543 39 5 C41.90337842 8.3570313 42.59107559 11.41265818 42.421875 15.87109375 C41.64727836 19.77993789 39.63509428 23.04592062 37 26 C34.34416632 27.64159798 33.18481035 28 30 28 C30.39380859 28.59538574 30.78761719 29.19077148 31.19335938 29.80419922 C32.96697095 32.49137818 34.73355765 35.18310345 36.5 37.875 C37.43005859 39.28072266 37.43005859 39.28072266 38.37890625 40.71484375 C39.25869141 42.05869141 39.25869141 42.05869141 40.15625 43.4296875 C40.70087891 44.25710449 41.24550781 45.08452148 41.80664062 45.93701172 C43 48 43 48 43 50 C37.93858171 50.85979221 37.93858171 50.85979221 35 50 C32.55102322 47.01941989 31.12389336 43.54328525 29.5 40.0625 C26.31399033 33.490455 26.31399033 33.490455 20.89648438 28.95458984 C15.97488413 27.83653536 12.19190639 28.46290624 7 29 C7 35.93 7 42.86 7 50 C4.69 50 2.38 50 0 50 C0 33.5 0 17 0 0 Z " fill="#DFDFF3" transform="translate(307,224)"/>
<path d="M0 0 C2.97 0 5.94 0 9 0 C10.56706023 3.8731707 12.12775865 7.74887681 13.6875 11.625 C14.34008789 13.23761719 14.34008789 13.23761719 15.00585938 14.8828125 C18.21463557 22.86909991 21.09996464 30.879901 24 39 C28.95 26.13 33.9 13.26 39 0 C42.3 0 45.6 0 49 0 C49 16.5 49 33 49 50 C46.69 50 44.38 50 42 50 C41.67 37.79 41.34 25.58 41 13 C36.38 25.21 31.76 37.42 27 50 C25.02 50 23.04 50 21 50 C19.64864653 46.35636493 18.29775883 42.71255753 16.94726562 39.06860352 C16.26716183 37.23379969 15.58671041 35.39912473 14.90625 33.56445312 C14.24882812 31.79038086 14.24882812 31.79038086 13.578125 29.98046875 C13.18012695 28.90692139 12.78212891 27.83337402 12.37207031 26.72729492 C10.56691288 21.82349804 8.7857773 16.91088757 7 12 C6.67 24.54 6.34 37.08 6 50 C4.02 50 2.04 50 0 50 C0 33.5 0 17 0 0 Z " fill="#DFDFF3" transform="translate(247,224)"/>
<path d="M0 0 C2.97 0 5.94 0 9 0 C11.71318596 6.63563141 14.41826477 13.27452452 17.11767578 19.91577148 C18.03735034 22.17564999 18.9588928 24.43476926 19.88232422 26.69311523 C21.20769722 29.93536765 22.52637531 33.18027222 23.84375 36.42578125 C24.46715271 37.94465691 24.46715271 37.94465691 25.10314941 39.49421692 C25.4835437 40.43496567 25.86393799 41.37571442 26.25585938 42.3449707 C26.59339233 43.17325882 26.93092529 44.00154694 27.27868652 44.85493469 C28 47 28 47 28 50 C25.69 50 23.38 50 21 50 C20.16260219 47.8765984 19.33019717 45.7512272 18.5 43.625 C18.0359375 42.44164062 17.571875 41.25828125 17.09375 40.0390625 C16 37 16 37 16 35 C8.41 35.33 0.82 35.66 -7 36 C-8.65 40.62 -10.3 45.24 -12 50 C-14.64 50 -17.28 50 -20 50 C-15.79634335 38.55638765 -11.29884944 27.25895646 -6.625 16 C-5.97762458 14.43499509 -5.33048812 12.86989131 -4.68359375 11.3046875 C-3.12513245 7.53531939 -1.56349871 3.76728126 0 0 Z " fill="#E2E2F7" transform="translate(374,224)"/>
<path d="M0 0 C0.72501709 -0.01023193 1.45003418 -0.02046387 2.19702148 -0.03100586 C6.93964369 0.04683128 10.1475872 0.96478799 14.3125 3.4375 C13.6525 4.4275 12.9925 5.4175 12.3125 6.4375 C11.45140625 6.28023437 10.5903125 6.12296875 9.703125 5.9609375 C-0.03433401 4.45768922 -8.49523435 4.47687086 -16.6875 10.4375 C-21.93197611 15.17636499 -26.11133532 20.56850274 -26.96484375 27.78125 C-27.29059764 36.22479071 -25.44353689 42.68985145 -20.0625 49.25 C-14.4115364 55.12700214 -9.00830168 57.56410994 -0.875 58.0625 C6.07684876 57.78726716 11.6978766 55.5072714 17.3125 51.4375 C23.25596921 44.87203983 25.7119692 38.04606145 25.58203125 29.29296875 C25.24607802 25.73381205 24.30198791 22.71238905 22.96875 19.41015625 C22.3125 17.4375 22.3125 17.4375 22.3125 13.4375 C23.6325 13.4375 24.9525 13.4375 26.3125 13.4375 C31.15442467 23.50178627 32.86138455 30.59803017 29.875 41.4375 C26.95142187 49.45409586 21.58555975 56.06308364 13.9375 60 C5.91954925 63.17953219 -3.37695689 64.06787056 -11.75390625 61.49609375 C-14.21836993 60.2958435 -16.43504782 58.99655868 -18.6875 57.4375 C-19.55955078 56.86128906 -19.55955078 56.86128906 -20.44921875 56.2734375 C-25.94461563 52.2037985 -29.58722992 45.85806248 -31.6875 39.4375 C-32.89588611 28.82926422 -32.05209824 20.32622463 -25.6875 11.4375 C-23.26242257 8.6362051 -20.76570361 6.49154293 -17.6875 4.4375 C-17.05585937 4.00566406 -16.42421875 3.57382813 -15.7734375 3.12890625 C-10.69356498 0.29476888 -5.69239475 0.06264736 0 0 Z " fill="#304B31" transform="translate(119.6875,220.5625)"/>
<path d="M0 0 C-1.54559012 4.99931619 -4.55166551 8.33742181 -7.875 12.25 C-14.20430535 19.86493171 -19.9342467 27.7903439 -25.5625 35.93066406 C-27.90849136 39.30780788 -30.2966853 42.65450915 -32.6875 46 C-33.10990967 46.59377441 -33.53231934 47.18754883 -33.9675293 47.79931641 C-36.8798518 51.8798518 -36.8798518 51.8798518 -38 53 C-40.67058851 53.14115161 -43.32432238 53.04247107 -46 53 C-46.84600276 50.9635505 -47.6762825 48.92056513 -48.5 46.875 C-48.9640625 45.73804688 -49.428125 44.60109375 -49.90625 43.4296875 C-50.9940398 40.01868949 -51.34510379 37.54890314 -51 34 C-49.3125 32.0625 -49.3125 32.0625 -47 31 C-44.4375 30.875 -44.4375 30.875 -42 32 C-40.1875 35.5625 -40.1875 35.5625 -39 39 C-36.20577379 35.60128336 -33.70698686 32.12711812 -31.3125 28.4375 C-12.35036122 -0.19919937 -12.35036122 -0.19919937 0 0 Z " fill="#304C31" transform="translate(152,217)"/>
<path d="M0 0 C2.31 0 4.62 0 7 0 C7 14.52 7 29.04 7 44 C15.25 44 23.5 44 32 44 C32 45.98 32 47.96 32 50 C21.44 50 10.88 50 0 50 C0 33.5 0 17 0 0 Z " fill="#E3E3F8" transform="translate(186,224)"/>
<path d="M0 0 C3.41687783 -0.0539507 6.83290364 -0.09365049 10.25 -0.125 C11.21808594 -0.14175781 12.18617188 -0.15851563 13.18359375 -0.17578125 C14.11816406 -0.18222656 15.05273438 -0.18867188 16.015625 -0.1953125 C16.87446289 -0.20578613 17.73330078 -0.21625977 18.61816406 -0.22705078 C21.24732771 0.02357675 22.78976111 0.56757 25 2 C27.33909307 5.5086396 27.41291057 6.87089433 27 11 C25.63652722 14.33293346 24.77720366 15.65217737 21.46875 17.1328125 C17.10274593 18.22431352 13.09974289 18.21705278 8.625 18.125 C5.77875 18.08375 2.9325 18.0425 0 18 C0 12.06 0 6.12 0 0 Z " fill="#23233C" transform="translate(315,230)"/>
<path d="M0 0 C2.31 0 4.62 0 7 0 C7 16.5 7 33 7 50 C4.69 50 2.38 50 0 50 C0 33.5 0 17 0 0 Z " fill="#E6E6FA" transform="translate(227,224)"/>
<path d="M0 0 C2.12961921 2.12961921 2.69856154 3.45994756 3.7265625 6.24609375 C4.0359375 7.08333984 4.3453125 7.92058594 4.6640625 8.78320312 C4.98117187 9.65912109 5.29828125 10.53503906 5.625 11.4375 C5.94984375 12.30955078 6.2746875 13.18160156 6.609375 14.08007812 C9 20.6141183 9 20.6141183 9 24 C3.06 24 -2.88 24 -9 24 C-8.071875 21.339375 -7.14375 18.67875 -6.1875 15.9375 C-5.75860474 14.70181274 -5.75860474 14.70181274 -5.32104492 13.44116211 C-3.71789892 8.87348138 -1.95795026 4.42743707 0 0 Z " fill="#292942" transform="translate(378,230)"/>
</svg>
